<svg xmlns="http://www.w3.org/2000/svg" xmlns:xlink="http://www.w3.org/1999/xlink" width="700" zoomAndPan="magnify" viewBox="0 0 525 60" height="80" preserveAspectRatio="xMidYMid meet" version="1.0"><defs><g/></defs><rect x="-52.5" width="630" fill="#ffffff" y="-6" height="72" fill-opacity="1"/><rect x="-52.5" width="630" fill="#ffffff" y="-6" height="72" fill-opacity="1"/><rect x="-52.5" width="630" fill="#ffde59" y="-6" height="72" fill-opacity="1"/><g fill="#004aad" fill-opacity="1"><g transform="translate(132.369136, 42.375)"><g><path d="M 10.4375 0.34375 C 8.8125 0.34375 7.359375 0.140625 6.078125 -0.265625 C 4.804688 -0.671875 3.742188 -1.203125 2.890625 -1.859375 C 2.046875 -2.515625 1.398438 -3.234375 0.953125 -4.015625 L 3.515625 -7.140625 L 3.921875 -7.140625 C 4.628906 -6.085938 5.523438 -5.25 6.609375 -4.625 C 7.703125 -4 8.976562 -3.6875 10.4375 -3.6875 C 11.6875 -3.6875 12.628906 -3.945312 13.265625 -4.46875 C 13.898438 -5 14.21875 -5.726562 14.21875 -6.65625 C 14.21875 -7.21875 14.113281 -7.6875 13.90625 -8.0625 C 13.695312 -8.4375 13.359375 -8.753906 12.890625 -9.015625 C 12.421875 -9.285156 11.78125 -9.519531 10.96875 -9.71875 L 7.9375 -10.40625 C 5.820312 -10.894531 4.242188 -11.695312 3.203125 -12.8125 C 2.171875 -13.9375 1.65625 -15.394531 1.65625 -17.1875 C 1.65625 -18.519531 1.988281 -19.691406 2.65625 -20.703125 C 3.320312 -21.710938 4.289062 -22.492188 5.5625 -23.046875 C 6.84375 -23.609375 8.367188 -23.890625 10.140625 -23.890625 C 11.953125 -23.890625 13.503906 -23.648438 14.796875 -23.171875 C 16.085938 -22.703125 17.179688 -21.972656 18.078125 -20.984375 L 15.78125 -17.828125 L 15.375 -17.828125 C 14.707031 -18.523438 13.941406 -19.046875 13.078125 -19.390625 C 12.222656 -19.742188 11.242188 -19.921875 10.140625 -19.921875 C 8.859375 -19.921875 7.882812 -19.691406 7.21875 -19.234375 C 6.550781 -18.785156 6.21875 -18.164062 6.21875 -17.375 C 6.21875 -16.632812 6.453125 -16.039062 6.921875 -15.59375 C 7.390625 -15.15625 8.195312 -14.8125 9.34375 -14.5625 L 12.4375 -13.921875 C 14.726562 -13.441406 16.390625 -12.625 17.421875 -11.46875 C 18.453125 -10.3125 18.96875 -8.800781 18.96875 -6.9375 C 18.96875 -5.46875 18.648438 -4.1875 18.015625 -3.09375 C 17.378906 -2.007812 16.421875 -1.164062 15.140625 -0.5625 C 13.867188 0.0390625 12.300781 0.34375 10.4375 0.34375 Z M 10.4375 0.34375 "/></g></g></g><g fill="#004aad" fill-opacity="1"><g transform="translate(152.600229, 42.375)"><g><path d="M 12.265625 -4.234375 L 13.421875 -0.9375 C 12.941406 -0.539062 12.332031 -0.226562 11.59375 0 C 10.863281 0.226562 10.039062 0.34375 9.125 0.34375 C 7.195312 0.34375 5.734375 -0.175781 4.734375 -1.21875 C 3.734375 -2.269531 3.234375 -3.796875 3.234375 -5.796875 L 3.234375 -14.25 L 0.53125 -14.25 L 0.53125 -17.796875 L 3.234375 -17.796875 L 3.234375 -21.25 L 7.703125 -21.984375 L 7.703125 -17.796875 L 12.75 -17.796875 L 12.75 -14.25 L 7.703125 -14.25 L 7.703125 -6.125 C 7.703125 -5.238281 7.882812 -4.59375 8.25 -4.1875 C 8.613281 -3.789062 9.144531 -3.59375 9.84375 -3.59375 C 10.632812 -3.59375 11.328125 -3.804688 11.921875 -4.234375 Z M 12.265625 -4.234375 "/></g></g></g><g fill="#004aad" fill-opacity="1"><g transform="translate(166.404413, 42.375)"><g><path d="M 17.5625 -7.875 L 6.140625 -7.875 C 6.265625 -6.332031 6.703125 -5.207031 7.453125 -4.5 C 8.210938 -3.800781 9.238281 -3.453125 10.53125 -3.453125 C 11.550781 -3.453125 12.378906 -3.640625 13.015625 -4.015625 C 13.648438 -4.398438 14.160156 -4.976562 14.546875 -5.75 L 14.890625 -5.75 L 17.859375 -3.84375 C 17.273438 -2.601562 16.394531 -1.59375 15.21875 -0.8125 C 14.050781 -0.0390625 12.488281 0.34375 10.53125 0.34375 C 8.695312 0.34375 7.109375 -0.00390625 5.765625 -0.703125 C 4.429688 -1.398438 3.398438 -2.4375 2.671875 -3.8125 C 1.953125 -5.195312 1.59375 -6.882812 1.59375 -8.875 C 1.59375 -10.894531 1.972656 -12.597656 2.734375 -13.984375 C 3.503906 -15.367188 4.535156 -16.398438 5.828125 -17.078125 C 7.128906 -17.765625 8.59375 -18.109375 10.21875 -18.109375 C 12.726562 -18.109375 14.648438 -17.441406 15.984375 -16.109375 C 17.328125 -14.773438 18 -12.820312 18 -10.25 C 18 -9.3125 17.96875 -8.585938 17.90625 -8.078125 Z M 13.734375 -10.765625 C 13.691406 -12.117188 13.375 -13.101562 12.78125 -13.71875 C 12.195312 -14.332031 11.34375 -14.640625 10.21875 -14.640625 C 7.957031 -14.640625 6.628906 -13.347656 6.234375 -10.765625 Z M 13.734375 -10.765625 "/></g></g></g><g fill="#004aad" fill-opacity="1"><g transform="translate(185.717382, 42.375)"><g><path d="M 12.234375 0 L 6.90625 0 L 0.34375 -17.765625 L 5.015625 -17.765625 L 9.421875 -5.109375 L 9.796875 -5.109375 L 14.234375 -17.765625 L 18.78125 -17.765625 Z M 12.234375 0 "/></g></g></g><g fill="#004aad" fill-opacity="1"><g transform="translate(204.820946, 42.375)"><g><path d="M 17.5625 -7.875 L 6.140625 -7.875 C 6.265625 -6.332031 6.703125 -5.207031 7.453125 -4.5 C 8.210938 -3.800781 9.238281 -3.453125 10.53125 -3.453125 C 11.550781 -3.453125 12.378906 -3.640625 13.015625 -4.015625 C 13.648438 -4.398438 14.160156 -4.976562 14.546875 -5.75 L 14.890625 -5.75 L 17.859375 -3.84375 C 17.273438 -2.601562 16.394531 -1.59375 15.21875 -0.8125 C 14.050781 -0.0390625 12.488281 0.34375 10.53125 0.34375 C 8.695312 0.34375 7.109375 -0.00390625 5.765625 -0.703125 C 4.429688 -1.398438 3.398438 -2.4375 2.671875 -3.8125 C 1.953125 -5.195312 1.59375 -6.882812 1.59375 -8.875 C 1.59375 -10.894531 1.972656 -12.597656 2.734375 -13.984375 C 3.503906 -15.367188 4.535156 -16.398438 5.828125 -17.078125 C 7.128906 -17.765625 8.59375 -18.109375 10.21875 -18.109375 C 12.726562 -18.109375 14.648438 -17.441406 15.984375 -16.109375 C 17.328125 -14.773438 18 -12.820312 18 -10.25 C 18 -9.3125 17.96875 -8.585938 17.90625 -8.078125 Z M 13.734375 -10.765625 C 13.691406 -12.117188 13.375 -13.101562 12.78125 -13.71875 C 12.195312 -14.332031 11.34375 -14.640625 10.21875 -14.640625 C 7.957031 -14.640625 6.628906 -13.347656 6.234375 -10.765625 Z M 13.734375 -10.765625 "/></g></g></g><g fill="#004aad" fill-opacity="1"><g transform="translate(224.133915, 42.375)"><g><path d="M 2.5625 0 L 2.5625 -17.765625 L 6.84375 -17.765625 L 6.84375 -15.15625 L 7.1875 -15.078125 C 8.289062 -17.097656 10.082031 -18.109375 12.5625 -18.109375 C 14.613281 -18.109375 16.117188 -17.550781 17.078125 -16.4375 C 18.046875 -15.320312 18.53125 -13.691406 18.53125 -11.546875 L 18.53125 0 L 14.0625 0 L 14.0625 -11 C 14.0625 -12.1875 13.828125 -13.039062 13.359375 -13.5625 C 12.890625 -14.082031 12.132812 -14.34375 11.09375 -14.34375 C 9.8125 -14.34375 8.8125 -13.925781 8.09375 -13.09375 C 7.382812 -12.269531 7.03125 -10.972656 7.03125 -9.203125 L 7.03125 0 Z M 2.5625 0 "/></g></g></g><g fill="#004aad" fill-opacity="1"><g transform="translate(244.94488, 42.375)"><g/></g></g><g fill="#004aad" fill-opacity="1"><g transform="translate(252.724836, 42.375)"><g><path d="M 18.265625 -14.703125 L 18.265625 -23.5625 L 22.90625 -23.5625 L 22.90625 0 L 18.265625 0 L 18.265625 -10.734375 L 7.71875 -10.734375 L 7.71875 0 L 3.0625 0 L 3.0625 -23.5625 L 7.71875 -23.5625 L 7.71875 -14.703125 Z M 18.265625 -14.703125 "/></g></g></g><g fill="#004aad" fill-opacity="1"><g transform="translate(278.706334, 42.375)"><g><path d="M 6.921875 0.34375 C 5.785156 0.34375 4.796875 0.132812 3.953125 -0.28125 C 3.117188 -0.707031 2.476562 -1.328125 2.03125 -2.140625 C 1.582031 -2.953125 1.359375 -3.925781 1.359375 -5.0625 C 1.359375 -6.113281 1.582031 -6.992188 2.03125 -7.703125 C 2.476562 -8.421875 3.175781 -9.007812 4.125 -9.46875 C 5.070312 -9.925781 6.304688 -10.273438 7.828125 -10.515625 C 8.890625 -10.691406 9.695312 -10.878906 10.25 -11.078125 C 10.8125 -11.285156 11.1875 -11.519531 11.375 -11.78125 C 11.570312 -12.039062 11.671875 -12.367188 11.671875 -12.765625 C 11.671875 -13.328125 11.46875 -13.757812 11.0625 -14.0625 C 10.664062 -14.363281 10.007812 -14.515625 9.09375 -14.515625 C 8.101562 -14.515625 7.160156 -14.296875 6.265625 -13.859375 C 5.378906 -13.421875 4.609375 -12.84375 3.953125 -12.125 L 3.625 -12.125 L 1.75 -14.9375 C 2.65625 -15.9375 3.757812 -16.710938 5.0625 -17.265625 C 6.363281 -17.828125 7.78125 -18.109375 9.3125 -18.109375 C 11.664062 -18.109375 13.367188 -17.609375 14.421875 -16.609375 C 15.472656 -15.609375 16 -14.191406 16 -12.359375 L 16 -4.640625 C 16 -3.847656 16.347656 -3.453125 17.046875 -3.453125 C 17.316406 -3.453125 17.582031 -3.5 17.84375 -3.59375 L 18.0625 -3.53125 L 18.390625 -0.421875 C 18.140625 -0.253906 17.789062 -0.117188 17.34375 -0.015625 C 16.90625 0.078125 16.425781 0.125 15.90625 0.125 C 14.84375 0.125 14.007812 -0.078125 13.40625 -0.484375 C 12.8125 -0.890625 12.390625 -1.53125 12.140625 -2.40625 L 11.796875 -2.4375 C 10.921875 -0.582031 9.296875 0.34375 6.921875 0.34375 Z M 8.34375 -3 C 9.375 -3 10.195312 -3.34375 10.8125 -4.03125 C 11.4375 -4.726562 11.75 -5.691406 11.75 -6.921875 L 11.75 -8.734375 L 11.4375 -8.796875 C 11.164062 -8.578125 10.8125 -8.394531 10.375 -8.25 C 9.945312 -8.113281 9.328125 -7.972656 8.515625 -7.828125 C 7.546875 -7.671875 6.847656 -7.394531 6.421875 -7 C 5.992188 -6.601562 5.78125 -6.046875 5.78125 -5.328125 C 5.78125 -4.566406 6.003906 -3.988281 6.453125 -3.59375 C 6.910156 -3.195312 7.539062 -3 8.34375 -3 Z M 8.34375 -3 "/></g></g></g><g fill="#004aad" fill-opacity="1"><g transform="translate(297.43943, 42.375)"><g><path d="M 4.78125 -19.90625 C 3.976562 -19.90625 3.320312 -20.144531 2.8125 -20.625 C 2.3125 -21.113281 2.0625 -21.75 2.0625 -22.53125 C 2.0625 -23.289062 2.3125 -23.914062 2.8125 -24.40625 C 3.320312 -24.894531 3.976562 -25.140625 4.78125 -25.140625 C 5.320312 -25.140625 5.800781 -25.023438 6.21875 -24.796875 C 6.632812 -24.566406 6.957031 -24.253906 7.1875 -23.859375 C 7.425781 -23.472656 7.546875 -23.03125 7.546875 -22.53125 C 7.546875 -22.019531 7.425781 -21.566406 7.1875 -21.171875 C 6.957031 -20.773438 6.632812 -20.460938 6.21875 -20.234375 C 5.800781 -20.015625 5.320312 -19.90625 4.78125 -19.90625 Z M 2.5625 0 L 2.5625 -17.765625 L 7.03125 -17.765625 L 7.03125 0 Z M 2.5625 0 "/></g></g></g><g fill="#004aad" fill-opacity="1"><g transform="translate(307.00732, 42.375)"><g><path d="M 2.5625 0 L 2.5625 -17.765625 L 6.890625 -17.765625 L 6.890625 -15.125 L 7.234375 -15.0625 C 7.660156 -16.050781 8.222656 -16.773438 8.921875 -17.234375 C 9.617188 -17.703125 10.46875 -17.9375 11.46875 -17.9375 C 12.476562 -17.9375 13.25 -17.765625 13.78125 -17.421875 L 13.015625 -13.5625 L 12.6875 -13.5 C 12.394531 -13.625 12.113281 -13.710938 11.84375 -13.765625 C 11.570312 -13.816406 11.242188 -13.84375 10.859375 -13.84375 C 9.609375 -13.84375 8.65625 -13.40625 8 -12.53125 C 7.351562 -11.65625 7.03125 -10.25 7.03125 -8.3125 L 7.03125 0 Z M 2.5625 0 "/></g></g></g><g fill="#004aad" fill-opacity="1"><g transform="translate(320.940364, 42.375)"><g><path d="M 8.3125 0.34375 C 7.101562 0.34375 5.992188 0.203125 4.984375 -0.078125 C 3.972656 -0.367188 3.109375 -0.765625 2.390625 -1.265625 C 1.679688 -1.765625 1.15625 -2.335938 0.8125 -2.984375 L 3.28125 -5.65625 L 3.625 -5.65625 C 4.21875 -4.863281 4.914062 -4.265625 5.71875 -3.859375 C 6.519531 -3.460938 7.394531 -3.265625 8.34375 -3.265625 C 9.21875 -3.265625 9.875 -3.421875 10.3125 -3.734375 C 10.75 -4.046875 10.96875 -4.492188 10.96875 -5.078125 C 10.96875 -5.523438 10.804688 -5.898438 10.484375 -6.203125 C 10.171875 -6.515625 9.660156 -6.753906 8.953125 -6.921875 L 6.609375 -7.5 C 4.847656 -7.914062 3.5625 -8.554688 2.75 -9.421875 C 1.9375 -10.285156 1.53125 -11.382812 1.53125 -12.71875 C 1.53125 -13.820312 1.8125 -14.78125 2.375 -15.59375 C 2.9375 -16.414062 3.726562 -17.039062 4.75 -17.46875 C 5.78125 -17.894531 6.976562 -18.109375 8.34375 -18.109375 C 9.945312 -18.109375 11.273438 -17.875 12.328125 -17.40625 C 13.378906 -16.945312 14.203125 -16.332031 14.796875 -15.5625 L 12.40625 -12.984375 L 12.078125 -12.984375 C 11.585938 -13.546875 11.03125 -13.953125 10.40625 -14.203125 C 9.789062 -14.460938 9.101562 -14.59375 8.34375 -14.59375 C 6.582031 -14.59375 5.703125 -14.046875 5.703125 -12.953125 C 5.703125 -12.492188 5.863281 -12.117188 6.1875 -11.828125 C 6.519531 -11.535156 7.097656 -11.300781 7.921875 -11.125 L 10.125 -10.640625 C 11.925781 -10.253906 13.242188 -9.632812 14.078125 -8.78125 C 14.910156 -7.925781 15.328125 -6.773438 15.328125 -5.328125 C 15.328125 -4.203125 15.046875 -3.207031 14.484375 -2.34375 C 13.921875 -1.488281 13.113281 -0.828125 12.0625 -0.359375 C 11.007812 0.109375 9.757812 0.34375 8.3125 0.34375 Z M 8.3125 0.34375 "/></g></g></g><g fill="#004aad" fill-opacity="1"><g transform="translate(337.321757, 42.375)"><g><path d="M 12.265625 -4.234375 L 13.421875 -0.9375 C 12.941406 -0.539062 12.332031 -0.226562 11.59375 0 C 10.863281 0.226562 10.039062 0.34375 9.125 0.34375 C 7.195312 0.34375 5.734375 -0.175781 4.734375 -1.21875 C 3.734375 -2.269531 3.234375 -3.796875 3.234375 -5.796875 L 3.234375 -14.25 L 0.53125 -14.25 L 0.53125 -17.796875 L 3.234375 -17.796875 L 3.234375 -21.25 L 7.703125 -21.984375 L 7.703125 -17.796875 L 12.75 -17.796875 L 12.75 -14.25 L 7.703125 -14.25 L 7.703125 -6.125 C 7.703125 -5.238281 7.882812 -4.59375 8.25 -4.1875 C 8.613281 -3.789062 9.144531 -3.59375 9.84375 -3.59375 C 10.632812 -3.59375 11.328125 -3.804688 11.921875 -4.234375 Z M 12.265625 -4.234375 "/></g></g></g><g fill="#004aad" fill-opacity="1"><g transform="translate(351.125941, 42.375)"><g><path d="M 10.328125 0.34375 C 8.585938 0.34375 7.054688 -0.015625 5.734375 -0.734375 C 4.421875 -1.453125 3.398438 -2.5 2.671875 -3.875 C 1.953125 -5.257812 1.59375 -6.925781 1.59375 -8.875 C 1.59375 -10.832031 1.953125 -12.503906 2.671875 -13.890625 C 3.398438 -15.273438 4.421875 -16.320312 5.734375 -17.03125 C 7.054688 -17.75 8.585938 -18.109375 10.328125 -18.109375 C 12.066406 -18.109375 13.59375 -17.75 14.90625 -17.03125 C 16.226562 -16.320312 17.253906 -15.273438 17.984375 -13.890625 C 18.710938 -12.503906 19.078125 -10.832031 19.078125 -8.875 C 19.078125 -6.925781 18.710938 -5.257812 17.984375 -3.875 C 17.253906 -2.5 16.226562 -1.453125 14.90625 -0.734375 C 13.59375 -0.015625 12.066406 0.34375 10.328125 0.34375 Z M 10.328125 -3.453125 C 13.085938 -3.453125 14.46875 -5.257812 14.46875 -8.875 C 14.46875 -10.757812 14.113281 -12.140625 13.40625 -13.015625 C 12.695312 -13.890625 11.671875 -14.328125 10.328125 -14.328125 C 7.566406 -14.328125 6.1875 -12.507812 6.1875 -8.875 C 6.1875 -5.257812 7.566406 -3.453125 10.328125 -3.453125 Z M 10.328125 -3.453125 "/></g></g></g><g fill="#004aad" fill-opacity="1"><g transform="translate(371.77582, 42.375)"><g><path d="M 2.5625 0 L 2.5625 -17.765625 L 6.84375 -17.765625 L 6.84375 -15.15625 L 7.1875 -15.078125 C 8.289062 -17.097656 10.082031 -18.109375 12.5625 -18.109375 C 14.613281 -18.109375 16.117188 -17.550781 17.078125 -16.4375 C 18.046875 -15.320312 18.53125 -13.691406 18.53125 -11.546875 L 18.53125 0 L 14.0625 0 L 14.0625 -11 C 14.0625 -12.1875 13.828125 -13.039062 13.359375 -13.5625 C 12.890625 -14.082031 12.132812 -14.34375 11.09375 -14.34375 C 9.8125 -14.34375 8.8125 -13.925781 8.09375 -13.09375 C 7.382812 -12.269531 7.03125 -10.972656 7.03125 -9.203125 L 7.03125 0 Z M 2.5625 0 "/></g></g></g></svg>